# Blender 4.2.0
# www.blender.org
mtllib TheSpaceCrew .mtl
o Computer
v 0.503314 1.197193 -0.263753
v 0.503314 1.163026 -0.263753
v 0.503314 1.197193 0.261272
v 0.503314 1.163026 0.261272
v -1.496686 1.993536 -0.430897
v -1.496686 -0.006465 -0.430897
v -1.496686 1.993536 0.433378
v -1.496686 -0.006465 0.433378
v 0.503314 1.993536 -0.430897
v 0.503314 -0.006465 -0.430897
v 0.503314 1.993536 0.433378
v 0.503314 -0.006465 0.433378
v 0.490057 1.197193 -0.263753
v 0.490057 1.163026 -0.263753
v 0.490057 1.197193 0.261272
v 0.490057 1.163026 0.261272
vn -0.0000 1.0000 -0.0000
vn -0.0000 -0.0000 1.0000
vn -1.0000 -0.0000 -0.0000
vn -0.0000 -1.0000 -0.0000
vn -0.0000 -0.0000 -1.0000
vn 1.0000 -0.0000 -0.0000
vt 0.996878 0.976380
vt 0.643824 0.976380
vt 0.643824 0.868797
vt 0.996878 0.868797
vt 0.998479 0.647082
vt 0.998479 0.998123
vt 0.642239 0.998123
vt 0.642239 0.647082
vt 0.730831 0.701894
vt 0.730831 0.964772
vt 0.879043 0.964772
vt 0.879043 0.701894
vt 0.646217 0.799224
vt 0.989190 0.799224
vt 0.989190 0.685625
vt 0.646217 0.685625
vt 0.557975 0.815093
vt 0.434702 0.815093
vt 0.639040 0.645950
vt 0.639040 0.999737
vt 0.998759 0.999737
vt 0.998759 0.645950
vt 0.557976 0.807263
vt 0.597220 0.539267
vt 0.597220 0.997580
vt 0.434702 0.807263
vt 0.394293 0.997580
vt 0.394293 0.539267
s 0
usemtl Material.001
f 9/1/1 5/2/1 7/3/1 11/4/1
f 12/5/2 11/6/2 7/7/2 8/8/2
f 8/9/3 7/10/3 5/11/3 6/12/3
f 6/13/4 10/14/4 12/15/4 8/16/4
f 1/17/4 3/18/4 15/18/4 13/17/4
f 6/19/5 5/20/5 9/21/5 10/22/5
f 1/17/6 2/23/6 10/24/6 9/25/6
f 4/26/6 3/18/6 11/27/6 12/28/6
f 3/18/6 1/17/6 9/25/6 11/27/6
f 2/23/6 4/26/6 12/28/6 10/24/6
f 14/23/6 13/17/6 15/18/6 16/26/6
f 2/23/2 1/17/2 13/17/2 14/23/2
f 4/26/1 2/23/1 14/23/1 16/26/1
f 3/18/5 4/26/5 16/26/5 15/18/5
